<?xml version="1.0" encoding="utf-8"?>
<!-- Generator: Adobe Illustrator 15.1.0, SVG Export Plug-In  -->
<!DOCTYPE svg PUBLIC "-//W3C//DTD SVG 1.1//EN" "http://www.w3.org/Graphics/SVG/1.1/DTD/svg11.dtd" [
	<!ENTITY ns_flows "http://ns.adobe.com/Flows/1.0/">
]>
<svg version="1.1"
	 xmlns="http://www.w3.org/2000/svg" xmlns:xlink="http://www.w3.org/1999/xlink" xmlns:a="http://ns.adobe.com/AdobeSVGViewerExtensions/3.0/"
	 x="0px" y="0px" width="32px" height="32px" viewBox="0 0 32 32" overflow="visible" enable-background="new 0 0 32 32"
	 xml:space="preserve">
<defs>
</defs>
<path fill="#3A87AD" d="M14.465,10.428c-0.135,0-0.303-0.013-0.51-0.046c-0.93-0.146-3.348-0.86-3.375-2.39c-0.002-0.111,0.008-0.268,0.051-0.443
	c-0.166-0.173-0.285-0.37-0.352-0.588c-0.094-0.309-0.16-0.921,0.455-1.561c0.189-0.197,0.451-0.307,0.721-0.307
	c0.064,0,0.129,0.006,0.191,0.019c0.158,0.031,0.303,0.099,0.424,0.193c0.805,0.012,1.924,0.102,2.643,0.835
	c0.012,0.012,0.152,0.166,0.164,0.179c0.33,0.279,0.51,0.437,0.678,0.611c0.291,0.315,0.855,0.925,0.668,1.742
	c-0.057,0.248-0.203,0.459-0.404,0.599c-0.012,0.216-0.076,0.448-0.246,0.668C15.402,10.162,15.07,10.428,14.465,10.428z"/>
<path fill="#3A87AD" d="M16,32C7.178,32,0,24.822,0,16S7.178,0,16,0s16,7.178,16,16S24.822,32,16,32z M4,16.025C4,22.617,9.383,28,16,28
	c2.258,0,4.469-0.643,6.395-1.858c-0.215-0.409-0.371-0.832-0.482-1.292c-0.186-0.776-0.205-1.584-0.221-2.297
	c-0.018-0.7-0.033-1.328-0.152-1.955L21.5,20.375c-0.096-0.624-0.234-1.541-0.652-1.735c-0.127-0.061-0.291-0.089-0.5-0.089
	c-0.189,0-0.393,0.022-0.59,0.045c-0.227,0.026-0.396,0.044-0.555,0.044c-1.406-0.039-2.367-0.92-2.363-2.144
	c0.004-1.229,0.008-2.281,0.574-3.428c0.273-0.56,0.879-1.376,1.375-1.856c0.402-0.387,1.275-0.676,2.035-0.676
	c0.539,0,1.008,0.428,1.027,0.966c0.004,0.105,0.012,0.236,0.053,0.304c0.135,0.192,0.805,0.618,1.062,0.695
	c0.016,0,0.031,0,0.047,0c0.244,0,0.428-0.059,0.604-0.115c0.152-0.049,0.24-0.075,0.322-0.094c0.328-0.072,0.68-0.118,1.061-0.138
	c0.018-0.001,0.035-0.001,0.051-0.001c0.52,0,0.957,0.399,0.996,0.923c0.018,0.218,0.027,0.442,0.033,0.663
	c0.031,0.902,0.062,1.758,0.688,2.444c0.418,0.456,0.797,0.472,1.199,0.488C27.99,16.302,28,16.152,28,16c0-6.617-5.383-12-12-12
	c-2.752,0-5.443,0.958-7.576,2.699C8.471,7.105,8.602,7.452,8.801,7.7c0.053,0.065,0.145,0.142,0.25,0.227
	C9.266,8.101,9.398,8.355,9.42,8.631c0.02,0.275-0.074,0.547-0.262,0.75C9.098,9.445,9.035,9.516,8.982,9.6
	c-0.166,0.269-0.262,0.441-0.23,0.696c0.051,0.371,0.479,1.058,1.033,1.269c0.088,0.032,0.176,0.051,0.254,0.051
	c0.133,0,0.248-0.044,0.354-0.136c0.242-0.21,0.35-0.468,0.369-0.889c0.014-0.34,0.201-0.648,0.496-0.819
	c0.154-0.091,0.328-0.136,0.502-0.136c0.156,0,0.312,0.036,0.455,0.109c0.281,0.145,0.57,0.315,0.795,0.45l0.477,0.276
	c0.338,0.187,0.484,0.451,0.67,0.785l0.189,0.326c0.111,0.191,0.213,0.367,0.289,0.523c0.15,0.31,0.129,0.675-0.053,0.967
	c-0.184,0.292-0.504,0.469-0.848,0.469c-0.49,0.007-0.527,0.007-0.879,0.315c-0.455,0.396-0.738,0.722-0.938,1.322
	c-0.035,0.097-0.057,0.187-0.078,0.281c-0.07,0.291-0.117,0.484-0.219,0.668c-0.115,0.204-0.264,0.33-0.396,0.441
	s-0.25,0.21-0.336,0.36c-0.182,0.314-0.516,0.498-0.865,0.498c-0.1,0-0.199-0.015-0.297-0.045c-0.191-0.06-0.41-0.075-0.641-0.091
	c-0.287-0.025-0.395-0.035-0.494-0.035c-0.324,0-0.43,0.122-0.49,0.24c-0.084,0.429-0.455,0.83-0.889,0.879
	c-0.051,0.006-0.102,0.009-0.15,0.009c-0.381,0-0.74-0.166-0.896-0.519c-0.172-0.314-0.551-0.672-0.855-0.959l-0.324-0.312
	c-0.145-0.149-0.281-0.273-0.428-0.405c-0.195-0.179-0.379-0.349-0.543-0.528l0.002,0.002L4,16.025z"/>
</svg>
